<svg width="69" height="57" viewBox="0 0 69 57" fill="none" xmlns="http://www.w3.org/2000/svg">
<path d="M45.4258 39.4795C45.9328 39.4795 46.304 39.6353 46.5381 39.9473C46.7917 40.2594 46.9189 40.6108 46.9189 41.001C46.9189 41.7228 46.5381 42.2788 45.7773 42.6689C45.0361 43.0591 44.0609 43.2637 42.8516 43.2832C42.9101 42.8737 42.9875 42.4446 43.085 41.9961C43.202 41.5474 43.3586 41.1372 43.5537 40.7666C43.7682 40.3961 44.0219 40.0934 44.3145 39.8594C44.6264 39.606 44.9969 39.4796 45.4258 39.4795Z" fill="white"/>
<path d="M13.8672 19.9131C15.0959 19.9132 15.9557 20.2331 16.4473 20.8721C16.9634 21.4866 17.2217 22.2488 17.2217 23.1582L17.2129 23.4229C17.1945 23.6947 17.1479 23.9874 17.0742 24.3008L17.042 24.4473C16.9559 24.7859 16.7951 25.1062 16.5586 25.4072L16.4609 25.5244C16.2217 25.7932 15.8977 26.0242 15.4893 26.2178C15.0223 26.439 14.4075 26.5498 13.6455 26.5498L13.374 26.543C12.7316 26.5134 12.0232 26.3811 11.249 26.1445L11.6543 20.1348C12.0721 20.061 12.4779 20.0119 12.8711 19.9873C13.2644 19.9381 13.5968 19.9131 13.8672 19.9131Z" fill="white"/>
<path d="M34.7461 15.2305C35.3851 15.2305 35.8525 15.4271 36.1475 15.8203L36.2598 15.9707C36.5043 16.3255 36.627 16.7184 36.627 17.1484L36.6211 17.3164C36.5648 18.1444 36.0871 18.7892 35.1885 19.25C34.2545 19.7415 33.0256 19.9988 31.502 20.0234C31.5757 19.5074 31.674 18.9665 31.7969 18.4014C31.9443 17.8363 32.141 17.3204 32.3867 16.8535C32.6571 16.3866 32.9761 16.0049 33.3447 15.71C33.738 15.3904 34.2054 15.2305 34.7461 15.2305Z" fill="white"/>
<path d="M14.2354 9.58984C15.4642 9.58984 16.3248 9.87226 16.8164 10.4375L16.998 10.6455C17.3932 11.1428 17.5908 11.725 17.5908 12.3916L17.5811 12.6152C17.5626 12.841 17.5171 13.0739 17.4434 13.3135C17.3696 13.633 17.1971 13.9279 16.9268 14.1982C16.681 14.4686 16.337 14.6902 15.8945 14.8623C15.4521 15.0343 14.8623 15.1201 14.125 15.1201C13.5106 15.1201 12.8099 15.0218 12.0234 14.8252C12.0972 13.8176 12.1463 12.8836 12.1709 12.0234C12.2201 11.1632 12.2692 10.4134 12.3184 9.77441C12.6623 9.72528 12.9941 9.68864 13.3135 9.66406C13.6576 9.61491 13.965 9.58985 14.2354 9.58984Z" fill="white"/>
<path fill-rule="evenodd" clip-rule="evenodd" d="M12.9814 0C15.0468 0 16.9856 0.173552 18.7334 0.583984L18.7344 0.583008C18.752 0.586855 18.7695 0.591807 18.7871 0.595703C18.8007 0.598944 18.8145 0.601223 18.8281 0.604492L18.8271 0.605469C20.5113 0.981451 22.1546 1.58006 23.5781 2.54297L23.8457 2.72949C25.1668 3.68246 26.2513 4.92339 26.9727 6.45605C27.2284 6.99946 27.4304 7.55635 27.5859 8.12109C28.4248 7.58932 29.3212 7.14693 30.2607 6.78711C32.0554 6.09985 34.0048 5.8252 36 5.8252C37.5957 5.82522 39.1894 6.00616 40.668 6.49902C41.2575 6.69554 41.8406 6.94156 42.4053 7.24121C42.6162 7.11232 42.8296 6.99797 43.043 6.89648C43.1864 6.50945 43.33 6.13041 43.4746 5.75977C43.7296 5.07984 44.0002 4.43224 44.29 3.85254L44.3389 3.75488L44.3926 3.65918C44.596 3.29748 44.9349 2.7517 45.4463 2.24023C45.8903 1.79621 47.0697 0.774503 48.9062 0.774414H49.9756C51.8573 0.774414 54.2857 1.38993 55.8037 3.65137L55.9482 3.875L56.1113 4.15234C56.4863 4.81899 56.7514 5.51287 56.9277 6.21582C57.717 6.28123 58.8477 6.54201 59.8711 7.4375C61.2326 8.62883 61.5566 10.1781 61.5566 11.2119V11.3789L61.5439 11.5449L61.3965 13.5352L61.3955 13.5342C61.2969 14.94 60.8662 16.4512 59.833 17.7725L59.834 17.7734C58.8222 19.0743 57.4778 19.6719 56.2812 19.9463C56.249 20.3261 56.2189 20.6974 56.1865 21.0596C57.2985 21.4407 58.0792 22.1609 58.542 22.7314L58.665 22.8896L58.7988 23.0771C59.4344 24.0132 59.6088 24.9646 59.6729 25.3594C59.7632 25.9166 59.7861 26.4728 59.7861 26.9551C59.7861 27.8583 59.6782 28.775 59.4355 29.6689C59.8882 29.585 60.355 29.54 60.832 29.54L61.2236 29.5498C65.2462 29.754 68.4451 33.0799 68.4453 37.1533C68.4453 41.3583 65.0368 44.7672 60.832 44.7676C58.9734 44.7676 57.2702 44.1014 55.9482 42.9951C55.7804 43.4933 55.5648 43.9861 55.2891 44.4648L55.29 44.4658C55.285 44.4747 55.2785 44.4833 55.2734 44.4922C55.2609 44.5137 55.25 44.5362 55.2373 44.5576L55.2354 44.5566C54.9587 45.0362 54.6431 45.4844 54.293 45.9023C54.9142 46.9854 55.1074 48.1189 55.1074 49.0771C55.1074 50.6606 54.5834 52.2022 53.4971 53.4697C52.6679 54.437 51.66 55.1323 50.5986 55.6162L50.5996 55.6182C50.5846 55.6251 50.5687 55.6308 50.5537 55.6377C50.5507 55.6391 50.548 55.6412 50.5449 55.6426L50.5439 55.6416C49.6038 56.0716 48.6193 56.3572 47.6211 56.5283C46.7059 56.6852 45.7872 56.7686 44.8701 56.7686C43.6326 56.7685 42.4075 56.6136 41.2031 56.3125L41.1914 56.3086L41.1797 56.3057C40.1098 56.032 39.1031 55.6036 38.1738 55.0273L38.1328 55.0693C37.3209 55.8813 36.419 56.1919 35.9092 56.3193C35.3725 56.4535 34.9037 56.4756 34.5986 56.4756H32.9893C31.7724 56.4756 30.0403 56.308 28.4961 55.3438C27.9992 55.7032 27.5182 55.9257 27.1729 56.0586L27.0771 56.0957L26.9805 56.1279C26.0103 56.4513 25.0046 56.4756 24.415 56.4756C23.907 56.4756 23.3991 56.4458 22.8936 56.3896C22.1942 56.3119 21.4967 56.152 20.8154 55.8965L20.7695 55.8789L20.7246 55.8613C20.5031 55.7727 20.2861 55.672 20.0732 55.5625C20.0273 55.5955 19.9814 55.6292 19.9336 55.6611C18.9709 56.3029 17.9724 56.4756 17.2168 56.4756H15.6074C14.1416 56.4756 11.9266 56.2355 10.1953 54.6484L10.123 54.583L10.0547 54.5137C8.49849 52.9575 8.06257 50.9895 8.0625 49.3701C8.0625 49.0482 8.07515 48.5872 8.09473 48.0391L8.09766 47.9639L8.10254 47.8896C8.14259 47.3088 8.19281 46.6331 8.25195 45.8643C8.30892 45.1237 8.36626 44.3124 8.42383 43.4297L8.42676 43.3848L8.42969 43.3408C8.50749 42.4267 8.58527 41.5021 8.66309 40.5684C8.75913 39.3192 8.83551 38.2867 8.89258 37.4688L8.90039 37.375C8.95927 36.7273 9.00443 36.1766 9.03906 35.7197C8.46045 35.6618 7.90348 35.5807 7.37305 35.4736C7.36326 35.4718 7.35355 35.4706 7.34375 35.4688C7.31642 35.4632 7.2889 35.4588 7.26172 35.4531C6.03709 35.2184 4.75454 34.822 3.59961 34.1191L3.5 34.0586L3.4043 33.9932C2.22504 33.1891 1.22462 32.0679 0.629883 30.6143L0.59668 30.5312L0.566406 30.4473C0.148096 29.2967 6.02278e-06 28.1135 0 26.9922C0 26.6322 0.0192372 26.2167 0.0458984 25.79C0.0714757 25.3565 0.108383 24.7707 0.157227 24.0381C0.205992 23.3066 0.267222 22.365 0.34082 21.2119L0.34375 21.168L0.347656 21.125C0.445974 19.9452 0.568344 18.4699 0.71582 16.7002C0.887 14.5237 1.02143 12.8005 1.11914 11.5303C1.21726 10.2548 1.29059 9.2813 1.33887 8.60547C1.36188 8.27114 1.37839 8.00359 1.38867 7.79785C1.39384 7.69456 1.3974 7.61305 1.39941 7.55078C1.4004 7.52006 1.40103 7.49611 1.40137 7.47852V7.26465L1.41699 7.07812C1.43582 6.85224 1.43848 6.74042 1.43848 6.71387V5.53125L1.46094 5.30762C1.489 5.02704 1.53051 4.66484 1.59961 4.31934L1.6543 4.04492L1.74316 3.7793C1.8875 3.34629 2.3201 2.1845 3.49805 1.30762L3.49707 1.30566C4.51546 0.542004 5.59107 0.337171 6.35449 0.302734C7.79818 0.205098 9.03899 0.129457 10.0713 0.0791016H10.0762C11.1564 0.027659 12.1282 8.68983e-06 12.9814 0ZM46.4209 35.5879C45.153 35.5879 44.0604 35.7631 43.1436 36.1143C42.2268 36.4654 41.4464 36.9236 40.8027 37.4893C40.159 38.055 39.6323 38.6991 39.2227 39.4209C38.8326 40.1231 38.5202 40.835 38.2861 41.5566C38.0716 42.2784 37.9257 42.9813 37.8477 43.6641C37.7696 44.3467 37.7305 44.9323 37.7305 45.4199C37.7305 46.746 37.945 47.8479 38.374 48.7256C38.8032 49.6034 39.3494 50.3063 40.0127 50.833L40.2725 51.0234C40.8868 51.45 41.5612 51.7566 42.2949 51.9443C43.1532 52.1589 44.0118 52.2666 44.8701 52.2666C45.5139 52.2666 46.1776 52.2079 46.8604 52.0908C47.5428 51.9738 48.1571 51.7886 48.7031 51.5352C49.1981 51.3133 49.6117 51.0318 49.9424 50.6904L50.0791 50.54C50.3863 50.1815 50.5593 49.7632 50.5977 49.2852L50.6055 49.0771C50.6055 48.648 50.5076 48.2965 50.3125 48.0234C50.1175 47.7505 49.8931 47.5359 49.6396 47.3799C49.3861 47.2239 49.1324 47.1259 48.8789 47.0869C48.6451 47.0285 48.4794 47 48.3818 47C48.1673 47 47.991 47.0871 47.8545 47.2627C47.7375 47.4187 47.5916 47.6048 47.416 47.8193C47.2405 48.0143 47.0063 48.1995 46.7139 48.375C46.4408 48.5311 46.0502 48.6094 45.543 48.6094C45.036 48.6093 44.6069 48.5212 44.2559 48.3457C43.9048 48.1702 43.6218 47.9459 43.4072 47.6729C43.1927 47.3998 43.0272 47.0874 42.9102 46.7363C42.8126 46.3657 42.7637 45.9947 42.7637 45.624C43.0758 45.624 43.5146 45.6142 44.0801 45.5947C44.6653 45.5557 45.2997 45.4784 45.9824 45.3613C46.6651 45.2248 47.3574 45.0388 48.0596 44.8047C48.7618 44.5706 49.3962 44.2495 49.9619 43.8398C50.5471 43.4107 51.0151 42.883 51.3662 42.2588C51.7367 41.6346 51.9219 40.8737 51.9219 39.9766C51.9218 39.372 51.8249 38.8059 51.6299 38.2793C51.4348 37.7527 51.1224 37.2944 50.6934 36.9043C50.3178 36.5458 49.8376 36.2543 49.2529 36.0303L48.9961 35.9385C48.2938 35.7044 47.4352 35.5879 46.4209 35.5879ZM12.9814 4.50195C12.2196 4.50196 11.3222 4.52702 10.29 4.57617C9.28236 4.62533 8.0535 4.69857 6.60352 4.79688C6.43166 4.79688 6.29653 4.83366 6.19824 4.90723C6.12456 4.95635 6.06281 5.05485 6.01367 5.20215L5.97656 5.43262C5.96426 5.52485 5.95175 5.63285 5.93945 5.75586V6.71387C5.93945 6.91043 5.92788 7.15637 5.90332 7.45117L5.88477 8.02344C5.87248 8.26904 5.85365 8.56981 5.8291 8.92578C5.77994 9.614 5.70672 10.5978 5.6084 11.876L5.20215 17.0742C5.05467 18.8439 4.9323 20.3192 4.83398 21.499L4.64941 24.3379L4.53906 26.0703C4.51448 26.4636 4.50195 26.771 4.50195 26.9922L4.50684 27.2637C4.52832 27.8875 4.62482 28.436 4.79688 28.9092C5.01805 29.4498 5.39886 29.9048 5.93945 30.2734C6.50471 30.6175 7.25462 30.8758 8.18848 31.0479C9.12249 31.2445 10.3154 31.3428 11.7656 31.3428C12.5738 31.3428 13.3331 31.3124 14.0439 31.2559C14.0102 31.2724 13.975 31.2917 13.9395 31.3154C13.8225 31.374 13.7646 31.4817 13.7646 31.6377C13.7646 32.0082 13.7549 32.3207 13.7354 32.5742C13.7353 32.8082 13.7256 33.062 13.7061 33.335C13.706 33.6079 13.6864 33.9197 13.6475 34.2705C13.628 34.6216 13.5986 35.0808 13.5596 35.6465C13.5206 36.2121 13.4618 36.924 13.3838 37.7822C13.3253 38.621 13.2469 39.6744 13.1494 40.9424C13.0714 41.8787 12.994 42.8058 12.916 43.7227L12.7402 46.21L12.5938 48.1992C12.5742 48.7454 12.5645 49.136 12.5645 49.3701C12.5645 50.2281 12.7888 50.8815 13.2373 51.3301C13.7055 51.7592 14.4956 51.9736 15.6074 51.9736H17.2168C17.3923 51.9736 17.5098 51.8961 17.5684 51.7402C17.6464 51.5842 17.6855 51.2132 17.6855 50.6279C17.6855 50.1013 17.6953 49.4285 17.7148 48.6094C17.7344 47.7706 17.7539 46.8728 17.7734 45.917C17.7929 44.9417 17.8115 43.9469 17.8311 42.9326C17.8701 41.9182 17.8994 40.9716 17.9189 40.0938C17.9385 39.216 17.958 38.4454 17.9775 37.7822C17.997 37.1191 18.0068 36.651 18.0068 36.3779C18.2604 37.3728 18.5042 38.4849 18.7383 39.7139C18.9919 40.9232 19.2454 42.1618 19.499 43.4297C19.7526 44.6975 20.0062 45.946 20.2598 47.1748C20.5328 48.3841 20.8158 49.4866 21.1084 50.4814C21.2254 50.774 21.3919 51.0178 21.6064 51.2129C21.8405 51.408 22.1039 51.5646 22.3965 51.6816C22.7085 51.7986 23.0406 51.876 23.3916 51.915C23.7425 51.954 24.0836 51.9736 24.415 51.9736C24.8101 51.9736 25.1231 51.9521 25.3535 51.9082L25.5566 51.8574C25.8102 51.7599 25.9757 51.6326 26.0537 51.4766C26.3073 50.8329 26.5903 50.0819 26.9023 49.2236C27.2145 48.3458 27.5267 47.4285 27.8389 46.4727C28.1705 45.5169 28.4926 44.5417 28.8047 43.5469C29.1168 42.5325 29.4193 41.5761 29.7119 40.6787C30.0044 39.7817 30.2679 38.9627 30.502 38.2217C30.7555 37.461 30.9602 36.8461 31.1162 36.3779C31.0772 37.0216 31.0185 37.7726 30.9404 38.6309C30.8819 39.4697 30.8134 40.338 30.7354 41.2354C30.6573 42.1325 30.5702 43.0394 30.4727 43.9561C30.3751 44.8533 30.287 45.6826 30.209 46.4434C30.131 47.2042 30.0624 47.8679 30.0039 48.4336C29.9649 48.9989 29.9453 49.3889 29.9453 49.6035C29.9453 50.3058 30.1705 50.8814 30.6191 51.3301C31.0288 51.7055 31.6845 51.9169 32.5869 51.9639L32.9893 51.9736H34.5986L34.7188 51.9688C34.8286 51.9578 34.9053 51.9297 34.9492 51.8857C35.0076 51.8077 35.0469 51.691 35.0664 51.5352C35.0859 51.3986 35.1251 50.9305 35.1836 50.1309C35.2421 49.3311 35.3106 48.355 35.3887 47.2041C35.4862 46.0533 35.5733 44.8049 35.6514 43.459C35.7489 42.113 35.837 40.8158 35.915 39.5674C36.0126 38.2994 36.0811 37.1677 36.1201 36.1729C36.1786 35.1586 36.208 34.4272 36.208 33.9785C36.208 33.5298 36.1689 33.1392 36.0908 32.8076C36.0128 32.4566 35.8659 32.1637 35.6514 31.9297C35.4368 31.6958 35.1341 31.5203 34.7441 31.4033C34.6719 31.3767 34.5946 31.3535 34.5127 31.332C35.1766 31.3093 35.8567 31.2404 36.5527 31.1211C37.413 30.9736 38.1878 30.7404 38.876 30.4209C39.4996 30.1413 40.0199 29.7866 40.4365 29.3564L40.6084 29.167C41.0506 28.6509 41.2724 28.0368 41.2725 27.3242C41.2725 26.7836 41.149 26.3411 40.9033 25.9971C40.6576 25.6531 40.3751 25.3822 40.0557 25.1855C39.7361 24.9889 39.4162 24.8656 39.0967 24.8164C38.8018 24.7427 38.5926 24.7061 38.4697 24.7061C38.1995 24.7061 37.9786 24.817 37.8066 25.0381C37.6592 25.2347 37.4741 25.4679 37.2529 25.7383C37.0317 25.9841 36.7369 26.2182 36.3682 26.4395C36.0241 26.636 35.5324 26.7344 34.8936 26.7344C34.2546 26.7344 33.7139 26.6235 33.2715 26.4023C32.8292 26.1812 32.4725 25.8987 32.2021 25.5547C31.9318 25.2106 31.7227 24.8165 31.5752 24.374C31.4524 23.9072 31.3906 23.4404 31.3906 22.9736C31.7838 22.9736 32.3372 22.9611 33.0498 22.9365C33.7871 22.8874 34.5862 22.789 35.4463 22.6416C36.3066 22.4695 37.1796 22.2364 38.0645 21.9414C38.9493 21.6465 39.7482 21.2408 40.4609 20.7246C41.1983 20.1839 41.788 19.5199 42.2305 18.7334C42.6975 17.9469 42.9307 16.9881 42.9307 15.8574C42.9306 15.0955 42.8083 14.3823 42.5625 13.7188C42.3167 13.0553 41.9234 12.4778 41.3828 11.9863C40.8421 11.4702 40.129 11.0645 39.2441 10.7695C38.4699 10.5115 37.5451 10.3662 36.4697 10.334L36 10.3271C34.4023 10.3271 33.0253 10.5488 31.8701 10.9912L31.4453 11.1631C30.4721 11.5798 29.6306 12.0999 28.9209 12.7236L28.624 12.9961C27.9465 13.6413 27.3813 14.3615 26.9297 15.1572C26.4381 16.042 26.0449 16.9393 25.75 17.8486C25.4797 18.758 25.2956 19.6428 25.1973 20.5029C25.099 21.363 25.0498 22.1004 25.0498 22.7148C25.0498 24.3862 25.3196 25.7758 25.8604 26.8818C26.4011 27.9879 27.0901 28.8725 27.9258 29.5361C28.7859 30.1996 29.7441 30.6671 30.8008 30.9375C31.2388 31.047 31.6773 31.1331 32.1152 31.1982H28.6875C28.4341 31.1982 28.2587 31.2571 28.1611 31.374C28.0636 31.4716 27.9951 31.5792 27.9561 31.6963C27.644 32.9056 27.3806 33.9102 27.166 34.71L26.668 36.6699C26.5314 37.1966 26.4149 37.6362 26.3174 37.9873C26.2199 38.3384 26.1317 38.6703 26.0537 38.9824C25.9757 39.2748 25.8885 39.5965 25.791 39.9473C25.6935 40.2984 25.5662 40.7477 25.4102 41.2939C25.2736 41.8205 25.0983 42.4837 24.8838 43.2832C24.6692 44.0829 24.4058 45.0876 24.0938 46.2969C23.7622 44.483 23.489 42.8545 23.2744 41.4111C23.0793 39.9481 22.8933 38.6598 22.7178 37.5479C22.5617 36.4361 22.3865 35.4804 22.1914 34.6807C21.9963 33.8614 21.7428 33.1976 21.4307 32.6904C21.1186 32.1834 20.7181 31.8131 20.2305 31.5791C19.7429 31.3256 19.119 31.1983 18.3584 31.1982H14.6562C15.683 31.0883 16.5999 30.9166 17.4062 30.6787C18.9055 30.2363 20.1101 29.6465 21.0195 28.9092C21.9288 28.1473 22.5678 27.275 22.9365 26.292C23.3052 25.2842 23.4893 24.2146 23.4893 23.084C23.4893 21.683 23.1944 20.4785 22.6045 19.4707C22.0146 18.4385 21.0066 17.7012 19.5811 17.2588C20.343 17.0622 20.9703 16.7548 21.4619 16.3369C21.978 15.8945 22.3838 15.3905 22.6787 14.8252C22.9736 14.2599 23.1828 13.6701 23.3057 13.0557C23.4286 12.4166 23.4893 11.8018 23.4893 11.2119C23.4892 10.1551 23.2927 9.20869 22.8994 8.37305C22.5553 7.64198 22.042 7.01438 21.3594 6.49023L21.0566 6.27148C20.2209 5.70616 19.1263 5.2764 17.7744 4.98145C16.4472 4.66197 14.8493 4.50195 12.9814 4.50195ZM60.832 33.8906C59.03 33.8906 57.5686 35.3513 57.5684 37.1533C57.5684 38.8993 58.9397 40.3259 60.6641 40.4131L60.832 40.417C62.6339 40.4166 64.0947 38.9553 64.0947 37.1533C64.0945 35.3516 62.6338 33.891 60.832 33.8906ZM48.9062 5.27637L48.8408 5.28516C48.6849 5.32813 48.51 5.52205 48.3164 5.86621C48.1198 6.25946 47.9106 6.75099 47.6895 7.34082C47.4683 7.90604 47.2475 8.49599 47.0264 9.11035L46.7129 9.96777C46.6146 10.232 46.5226 10.4751 46.4365 10.6963C45.8713 10.6963 45.4164 10.7696 45.0723 10.917C44.7282 11.0645 44.4574 11.2611 44.2607 11.5068C44.0887 11.7526 43.9663 12.0359 43.8926 12.3555C43.8435 12.6502 43.8058 12.9571 43.7812 13.2764L43.6709 15.1572C43.6709 15.3291 43.6835 15.4642 43.708 15.5625C43.7571 15.6362 43.8798 15.6728 44.0762 15.6729H46.0303C45.9074 17.4179 45.785 18.8808 45.6621 20.0605C45.5638 21.2402 45.478 22.2358 45.4043 23.0469L45.2197 25.0381C45.1952 25.5295 45.1826 25.9595 45.1826 26.3281C45.1826 28.0241 45.6008 29.2903 46.4365 30.126L46.6025 30.2734C47.405 30.9389 48.5559 31.2935 50.0547 31.3379L50.3809 31.3428C52.175 31.3428 53.4413 30.9495 54.1787 30.1631C54.9161 29.3765 55.2852 28.3069 55.2852 26.9551C55.2851 26.2424 55.2109 25.7874 55.0635 25.5908C54.9161 25.3944 54.756 25.2959 54.584 25.2959C54.4122 25.296 54.2527 25.3453 54.1055 25.4434L53.6631 25.7754L53.3955 25.9502C53.3032 26.0056 53.2078 26.0582 53.1094 26.1074L52.9551 26.1719C52.7938 26.2271 52.6119 26.2549 52.4092 26.2549L52.2842 26.25C52.0049 26.2284 51.8009 26.1318 51.6719 25.96C51.5244 25.7387 51.4502 25.308 51.4502 24.6689C51.4502 24.3249 51.4627 23.8331 51.4873 23.1943C51.4977 23.0597 51.511 22.9215 51.5225 22.7793L51.6719 21.0195C51.7456 20.2084 51.8188 19.3479 51.8926 18.4385C51.9909 17.529 52.0776 16.6069 52.1514 15.6729H54.1055L54.502 15.6631C55.3864 15.6147 55.9792 15.3968 56.2803 15.0098C56.649 14.5428 56.8581 13.9405 56.9072 13.2031L57.0547 11.2119C57.0546 10.868 56.8579 10.6963 56.4648 10.6963H52.5938C52.6675 9.73769 52.7041 9.0121 52.7041 8.52051C52.7041 7.63573 52.5075 6.8734 52.1143 6.23438C51.7455 5.63531 51.0955 5.31763 50.165 5.28027L49.9756 5.27637H48.9062Z" fill="white"/>
</svg>
